<svg xmlns="http://www.w3.org/2000/svg" viewBox="0 0 648 155.67"><defs><style>.a{fill:#fff;}</style></defs><title>ccmusicawards-v2</title><path class="a" d="M276,59.29l.41,9.4h3.23l4.71-9.35-2.24,9.35H286l2.79-12h-6l-3.92,8.16-.24-8.16h-5.88l-2.79,12h4Zm218.27,31h5.27l3.16,8.4h8.6L507.4,89.2c2-.71,4-1.46,5.37-4a7.8,7.8,0,0,0,.92-3.54c0-6.59-6.29-6.8-9-6.93H489.52l-5.58,24h8.4ZM496.69,80h6c1.25,0,2.48.47,2.48,2.07a2.87,2.87,0,0,1-1.33,2.14c-.88.58-2.55.58-8.22.51Zm42.2,16.89a13.1,13.1,0,0,0,7.24-11.76,10.48,10.48,0,0,0-1.23-5.1c-2.17-3.47-5.2-5.34-11.76-5.37H519.92l-5.51,24h15.67C533.21,98.42,535.79,98.38,538.89,96.92ZM524.2,93.39,527.29,80c4.08,0,5,0,6,.2a4.62,4.62,0,0,1,3.94,2.55,8.56,8.56,0,0,1-2.34,9c-1.19,1.19-4.18,1.57-5.82,1.57ZM260.66,69c6.6,0,8.54-4.56,8.54-7.43a4.9,4.9,0,0,0-1.14-3.23c-1.28-1.49-3.45-2.06-5.58-2.09-6.44-.1-8.68,4.33-8.68,7.22a5.18,5.18,0,0,0,1.47,3.71A7.51,7.51,0,0,0,260.66,69ZM262.16,59A2.57,2.57,0,0,1,265,61.84c0,2.63-1.65,4.57-4,4.57a2.78,2.78,0,0,1-2.89-3A4.23,4.23,0,0,1,262.16,59Zm-17.1,10.1c5.22,0,7.22-3.45,7.43-4.34l-3.83-.42c-.17.74-1,1.9-3.28,2a2.8,2.8,0,0,1-3.09-3,4.15,4.15,0,0,1,4.31-4.35c1.65,0,2.33.83,2.54,1.84l3.82-.39a3.73,3.73,0,0,0-1-2.11,7,7,0,0,0-5.37-2c-5.93,0-8.38,4-8.38,7.06a5.81,5.81,0,0,0,1.31,3.75C240.83,68.52,243,69.05,245.06,69.05ZM291,87.1c-.78,3-1.32,5-3.39,6.25a6.25,6.25,0,0,1-3.13.82c-4.63.17-5.61-2.35-5-5.2l3.26-14.28h-8.57l-3.26,14.17c-.21,1.19-1,3.74.41,6.46s5.91,4.12,12.1,4.12c4.05,0,8-.51,10.88-2.42,3.64-2.27,4.11-5.71,4.69-7.07l3.54-15.26h-8.64ZM60,33.38l-2.14,9.3L42.7,108.5l-3.39,14.7h552.3l2.14-9.3L609,48.08l3.39-14.7Zm51.69,77.82H54.39l15.2-65.82h44a27.13,27.13,0,0,1,9.63,9.77l-19.14,15q-5.3-9.24-15.76-9.24a20.33,20.33,0,0,0-11,3,20.61,20.61,0,0,0-7.55,8.5,27.75,27.75,0,0,0-2.7,12.45,14.72,14.72,0,0,0,4.45,11.2Q76,100.3,83.28,100.3q10,0,17.57-9.12l15.65,15A46.14,46.14,0,0,1,111.73,111.2Zm41.86-15.12q4.46,4.22,11.77,4.22,10,0,17.56-9.12l15.65,15a47.05,47.05,0,0,1-4.76,5H132.54a31.91,31.91,0,0,1-5.18-6.28,33.85,33.85,0,0,1-5-18.36,46.89,46.89,0,0,1,6.36-24.43,44.38,44.38,0,0,1,17.68-16.72l.06,0H195.7a27.21,27.21,0,0,1,9.63,9.77l-19.14,15q-5.3-9.24-15.77-9.24a20.36,20.36,0,0,0-11,3,20.58,20.58,0,0,0-7.54,8.5,27.62,27.62,0,0,0-2.71,12.45A14.75,14.75,0,0,0,153.59,96.08ZM582.06,111.2h-371l15.19-65.82h371Zm-219-32.13c3.3.1,4.66,1.67,5.07,3.67L375.8,82a7.47,7.47,0,0,0-1.94-4.21c-2.65-3-6.76-3.91-10.74-3.91-11.87,0-16.76,8-16.76,14.11A11.66,11.66,0,0,0,349,95.46c2.55,2.89,6.93,3.94,11,3.94,10.44,0,14.45-6.9,14.86-8.67l-7.65-.85c-.34,1.5-2.08,3.81-6.56,4-3.88,0-6.19-2.25-6.19-6C354.45,83.7,357,79.07,363.08,79.07Zm196.68,15.1a6.92,6.92,0,0,1-4.08-.92,2.67,2.67,0,0,1-1-2.24l-7.79.34a6.5,6.5,0,0,0,2,5.37c1.15,1,4.21,2.75,10.13,2.75A18.9,18.9,0,0,0,567.14,98c4.18-2,5.07-5.31,5.07-7.08a6,6,0,0,0-.75-3c-1.09-2-3.1-2.52-5.58-3.34l-5.06-1.42c-1.26-.38-3-1-3-2.14,0-.92,1.12-1.88,3.74-1.88,2.82,0,4.42.89,4.21,2.38l7.72-.61c0-1.66-.07-4.38-4.28-6a18,18,0,0,0-6.6-1c-4.25,0-6.69.58-8.53,1.43a7.05,7.05,0,0,0-4.45,6.49,5.82,5.82,0,0,0,.47,2.31c1.06,2.45,3.64,3.27,5.44,3.85l4.25,1.25c2.55.75,4,1,4,2.49S562.31,94.1,559.76,94.17ZM330.51,98.69h8.61l5.54-24h-8.6Zm-87.82-18.8.82,18.8H250L259.39,80l-4.49,18.7h7.75l5.57-24H256.29L248.44,91,248,74.69H236.2l-5.58,24h8Zm67.25-4.59a7.05,7.05,0,0,0-4.45,6.49A5.84,5.84,0,0,0,306,84.1c1,2.45,3.63,3.27,5.44,3.85l4.25,1.25c2.55.75,4,1,4,2.49s-1.49,2.41-4,2.48a6.88,6.88,0,0,1-4.08-.92A2.66,2.66,0,0,1,310.45,91l-7.78.34a6.52,6.52,0,0,0,2,5.37c1.16,1,4.22,2.75,10.13,2.75A18.85,18.85,0,0,0,323,98c4.19-2,5.07-5.31,5.07-7.08a6,6,0,0,0-.75-3c-1.08-2-3.09-2.52-5.57-3.34l-5.07-1.42c-1.26-.38-3-1-3-2.14,0-.92,1.13-1.88,3.74-1.88,2.83,0,4.42.89,4.22,2.38l7.72-.61c0-1.66-.07-4.38-4.29-6a18,18,0,0,0-6.59-1C314.23,73.87,311.78,74.45,309.94,75.3Zm39-18.61h-4.3l-2.77,12h4.3Zm111.77,42L463,94.85h9.65l.45,3.84h8.73l-4.18-24h-10.1l-16.18,24ZM471,81l1,8.53h-5.95ZM295.14,59.29l.41,9.4h3.23l4.7-9.35-2.24,9.35h3.88l2.78-12h-6L298,64.85l-.24-8.16h-5.88l-2.79,12h4Zm20.35,9.77a10,10,0,0,0,5.44-1.2,5.8,5.8,0,0,0,2.34-3.54L325,56.69h-4.32l-1.43,6.2c-.39,1.48-.66,2.48-1.7,3.13a3.08,3.08,0,0,1-1.56.41c-2.31.08-2.8-1.17-2.51-2.6l1.63-7.14h-4.29l-1.63,7.09a4.54,4.54,0,0,0,.21,3.23C310.2,68.37,312.39,69.06,315.49,69.06Zm15.42-7.9,4,7.53h3.86l2.78-12h-3.87l-1.75,7.6-4.06-7.6H328l-2.79,12h4Zm106.71,20-.2,17.58h9.69l10.43-24h-8l-6.86,17.88L443,74.69h-8.2l-7.54,17.78,1.22-17.78h-7.45l-.78,24H430ZM397.73,94.85h9.66l.44,3.84h8.74l-4.19-24H402.29l-16.19,24h9.42Zm8-13.87,1,8.53h-5.94Zm-40-12.29h4.31l.8-3.54,7.45-8.46h-5.1l-3.76,5-1.34-5h-4.47l3,8.38Zm-13.89,0h4.28l2.16-9.3h4.33l.63-2.7H350.18l-.61,2.7H354Z"/></svg>